<svg width="159" height="40" viewBox="0 0 159 40" fill="none" xmlns="http://www.w3.org/2000/svg">
<path fill-rule="evenodd" clip-rule="evenodd" d="M0.90083 17.8313L17.9058 0.911322C19.1069 -0.303774 21.0777 -0.303774 22.2788 0.911322L39.2648 17.8313C40.4661 19.0278 40.4661 20.9721 39.2648 22.1688L22.2788 39.0886C21.0777 40.3038 19.1069 40.3038 17.9058 39.0886L0.90083 22.1688C-0.300277 20.9721 -0.300277 19.0278 0.90083 17.8313Z" fill="white"/>
<path fill-rule="evenodd" clip-rule="evenodd" d="M20.0828 39.2943C19.4824 39.2943 18.8629 39.0513 18.3937 38.6026L1.40752 21.664C0.957127 21.2153 0.713196 20.5983 0.713196 20L8.03309 20.4113L8.50234 28.3571L8.95273 20.4674L19.0129 21.0657L19.576 30.5071L12.2937 30.9371L19.6136 31.3671L20.0828 39.2943Z" fill="#00C0F3"/>
<path fill-rule="evenodd" clip-rule="evenodd" d="M30.6123 29.7967L30.5371 29.8714L20.6082 30.451L21.1713 21.0657L31.1566 20.4861L30.6123 29.7967ZM39.4524 20C39.4524 20.5983 39.2273 21.2153 38.7579 21.664L32.6393 27.7775L32.2076 20.4113L39.4524 20ZM28.5101 31.8719L21.7719 38.6026C21.3027 39.0513 20.7021 39.2943 20.0827 39.2943L20.5521 31.4232L28.5101 31.8719Z" fill="#16AEBD"/>
<path fill-rule="evenodd" clip-rule="evenodd" d="M20.0827 0.705811C20.7021 0.705811 21.3027 0.948904 21.7719 1.39778L38.7579 18.3362C39.2273 18.7849 39.4524 19.4019 39.4524 20.0002L32.1513 19.5889L31.6821 11.6431L31.2129 19.5328L21.1713 18.9345L20.6082 9.49303L27.8907 9.06306L20.5521 8.6331L20.0827 0.705811Z" fill="#6DC8BF"/>
<path fill-rule="evenodd" clip-rule="evenodd" d="M11.6555 8.12816L18.3937 1.39778C18.8629 0.948904 19.4824 0.705811 20.0828 0.705811L19.6324 8.57697L11.6555 8.12816ZM9.57217 10.2036L9.6285 10.1287L19.5572 9.54916L19.0129 18.9345L9.00906 19.5141L9.57217 10.2036ZM1.40752 18.3362L7.5451 12.2227L7.97676 19.5889L0.713196 20.0002C0.713196 19.4019 0.957127 18.7849 1.40752 18.3362Z" fill="#B1DED3"/>
<path d="M64.3861 31.5393H58.3787C56.0582 31.5393 54.2584 31.3663 53.0004 30.9993C51.7643 30.6537 50.7016 30.0271 49.8342 29.1198C47.9257 27.1324 46.9714 24.3457 46.9714 20.7597C46.9714 16.8065 48.1859 13.7821 50.6366 11.73C51.4172 11.0818 52.2415 10.6282 53.1088 10.3689C53.9764 10.1098 55.1258 9.98022 56.5787 9.98022H64.3861V13.8254H58.3787C56.8174 13.8254 55.6679 13.9334 54.9522 14.1494C54.2149 14.3654 53.6077 14.7758 53.1305 15.4023C52.8052 15.8343 52.5884 16.2664 52.48 16.6769C52.3716 17.0873 52.2848 17.8217 52.198 18.9019H64.3861V22.7255H52.198C52.3499 24.5617 52.892 25.8577 53.8462 26.5923C54.7788 27.3267 56.3618 27.694 58.5739 27.694H64.3861V31.5393ZM82.3859 26.5923C82.3859 27.5643 82.1474 28.4718 81.6486 29.3358C81.1715 30.1999 80.5642 30.8048 79.8269 31.1288C79.1981 31.4097 78.0053 31.5393 76.2703 31.5393H67.292V28.1693H75.0342C76.0317 28.1693 76.704 28.1478 77.0511 28.1045C77.7668 28.018 78.1353 27.586 78.1353 26.8083C78.1353 26.1172 77.8533 25.6634 77.2896 25.4474C76.986 25.3394 76.3788 25.2962 75.4896 25.2962H72.8656C71.0439 25.2962 69.6993 24.9721 68.8535 24.3242C67.6607 23.3951 67.0751 22.0774 67.0751 20.3707C67.0751 18.7291 67.6823 17.4545 68.8968 16.5471C69.5475 16.0504 70.7185 15.7911 72.4101 15.7911H81.6703V19.161H73.9717C73.1258 19.161 72.562 19.2043 72.3017 19.2907C71.8029 19.4852 71.5644 19.9172 71.5644 20.5436C71.5644 21.2781 71.868 21.7318 72.4752 21.9262C72.8005 22.0341 73.4294 22.0991 74.3837 22.0991H76.9209C78.6558 22.0991 80.0005 22.4662 80.9547 23.244C81.909 24.0217 82.3859 25.145 82.3859 26.5923ZM95.1377 31.5393H91.9715C90.0631 31.5393 88.7186 31.1073 87.9378 30.2215C87.1353 29.3358 86.745 27.802 86.745 25.6202V19.161H83.9907V15.7911H86.745V9.98022H91.1041V15.7911H95.1377V19.161H91.1041V24.8642C91.1041 26.2252 91.2559 27.1107 91.5378 27.5427C91.8415 27.9533 92.4487 28.1693 93.4028 28.1693H95.1377V31.5393ZM105.352 21.9694V25.3178H103.292C102.208 25.3178 101.666 25.8148 101.666 26.7868C101.666 27.7156 102.446 28.1693 104.008 28.1693H105.352V31.5393H104.225C102.772 31.5393 101.882 31.5392 101.535 31.5177C100.473 31.4097 99.6486 31.1288 99.0631 30.6967C97.8486 29.8111 97.2414 28.5365 97.2414 26.8514C97.2414 25.7714 97.5017 24.8208 98.0438 23.9784C98.5642 23.1575 99.2583 22.5958 100.126 22.3151C100.863 22.0774 102.056 21.9694 103.704 21.9694H105.352ZM105.352 15.7911V19.161H98.3909V15.7911H105.352ZM105.352 10.8875V14.0414H103.184L105.352 10.8875ZM130.639 31.5393H124.697C123.114 31.5393 121.856 31.3879 120.923 31.0639C119.969 30.7399 119.145 30.1784 118.429 29.3791C117.063 27.8667 116.391 25.901 116.391 23.5033C116.391 20.7812 117.193 18.7291 118.82 17.3465C120.034 16.3096 121.986 15.7911 124.697 15.7911H130.639V19.161H125.456C123.829 19.161 122.637 19.5068 121.921 20.1981C121.205 20.8892 120.837 22.0341 120.837 23.6111C120.837 25.2099 121.227 26.3763 122.03 27.0892C122.832 27.802 124.133 28.1693 125.933 28.1693H130.639V31.5393ZM138.381 14.171H134.022V9.98022H138.381V14.171ZM138.381 31.5393H134.022V15.7911H138.381V31.5393ZM105.352 14.0414V10.8875L105.981 9.98022H109.972L105.721 14.0414H105.352ZM105.352 31.5393V28.1693H109.039V25.3178H105.352V21.9694H109.039V21.7102C109.039 20.7381 108.801 20.0901 108.323 19.7227C107.846 19.3555 106.979 19.161 105.721 19.161H105.352V15.7911H105.721C107.413 15.7911 108.54 15.856 109.104 15.964C110.275 16.18 111.229 16.6985 111.967 17.5409C112.921 18.6426 113.398 20.3492 113.398 22.6607V31.5393H105.352ZM149.962 18.9019C149.94 18.9019 149.919 18.9019 149.875 18.9019C147.316 18.9019 146.037 20.4789 146.037 23.676C146.037 26.83 147.36 28.4069 149.962 28.4285V31.7553C149.919 31.7553 149.875 31.7553 149.81 31.7553C147.251 31.7553 145.256 31.0424 143.781 29.5951C142.328 28.1478 141.591 26.1603 141.591 23.6328C141.591 21.1701 142.35 19.2043 143.846 17.7569C145.364 16.3096 147.381 15.5751 149.94 15.5751H149.962V18.9019ZM153.887 23.676C153.887 20.5221 152.565 18.945 149.962 18.9019V15.5751C152.586 15.5751 154.646 16.3096 156.121 17.7569C157.596 19.2043 158.333 21.2349 158.333 23.8271C158.333 26.2899 157.574 28.234 156.056 29.6382C154.56 31.0423 152.543 31.7337 149.962 31.7553V28.4285C149.984 28.4285 149.984 28.4285 150.005 28.4285C152.586 28.4285 153.887 26.8514 153.887 23.676Z" fill="black"/>
</svg>
