<svg width="40" height="40" viewBox="0 0 40 40" fill="none" xmlns="http://www.w3.org/2000/svg">
<rect width="40" height="40" rx="20" fill="white"/>
<path d="M12.0998 9.80005H15.0998C15.6031 9.80005 16.1625 9.97027 16.5461 10.3538L16.5656 10.3733L16.5881 10.3909C16.9682 10.6952 17.2188 11.1686 17.3049 11.7708C17.4089 12.6971 17.6171 13.6383 18.0353 14.5852V14.5862C18.1892 14.9711 18.1966 15.3669 18.1096 15.802C18.0349 16.1755 17.8041 16.5826 17.5344 16.9504L16.6926 17.6057L16.343 17.8772L16.5715 18.2571C17.8137 20.3274 19.5725 22.0862 21.6428 23.3284L21.9777 23.5295L22.2531 23.2532L23.1535 22.3538C23.4742 22.0331 23.777 21.8774 24.2824 21.7932L24.2902 21.7922L24.298 21.7903C24.7332 21.7033 25.129 21.7106 25.5139 21.8645L25.5275 21.8694L25.5422 21.8743C26.4648 22.1818 27.2832 22.3863 28.1916 22.5881L28.2101 22.592L28.2297 22.595C28.8319 22.6811 29.3053 22.9325 29.6096 23.3127C29.9587 23.7493 30.2004 24.3423 30.2004 24.8V27.8C30.2004 28.1099 30.124 28.436 30.0373 28.7043C29.8546 29.0648 29.7066 29.2614 29.5226 29.384C29.4337 29.4433 29.3472 29.5077 29.2717 29.5647C29.1926 29.6244 29.1239 29.6777 29.0529 29.7268C28.9116 29.8246 28.7943 29.8864 28.6789 29.9153L28.5441 29.9485L28.4465 30.0461C28.3615 30.1311 28.2009 30.2004 28.0002 30.2004H27.7287C24.6182 29.9058 21.6041 28.835 18.9777 27.0842L18.9699 27.0793L18.5168 26.7805C16.2763 25.2603 14.3845 23.3172 12.9211 21.0305C11.2669 18.4023 10.1939 15.3839 9.79999 12.2668C9.80031 11.8561 9.8074 11.5595 9.87421 11.3586L9.88007 11.3401L9.88495 11.3215C9.95725 11.0323 10.0988 10.8088 10.3537 10.554C10.6755 10.2322 10.8793 10.0461 11.1213 9.9856L11.175 9.97192L11.2238 9.94751C11.5098 9.80455 11.7043 9.80005 12.0998 9.80005ZM12.0998 10.3C12.0097 10.3 11.8912 10.299 11.7678 10.3196C11.6667 10.3364 11.5737 10.3675 11.4777 10.4084C11.3271 10.4268 11.1806 10.4798 11.05 10.5842C10.9313 10.6791 10.8506 10.7968 10.7922 10.9016C10.6906 11.006 10.5677 11.1455 10.4523 11.3762L10.3996 11.4817V12.1262L10.4025 12.1516C10.7105 15.1289 11.7374 18.1086 13.4865 20.6809C15.0238 23.0357 17.0715 25.0822 19.4269 26.6184L19.4308 26.6213C21.9974 28.2638 24.9673 29.2867 27.9318 29.6956L27.966 29.7004H28.0002C28.0903 29.7004 28.2088 29.7015 28.3322 29.6809C28.4681 29.6583 28.5913 29.6134 28.7238 29.5471C28.7601 29.529 28.7906 29.5155 28.8342 29.4963C28.872 29.4797 28.933 29.453 28.9943 29.4163C29.1482 29.3239 29.2598 29.1977 29.3469 29.0237C29.381 28.9553 29.4126 28.9103 29.4406 28.8752C29.471 28.8373 29.5024 28.8046 29.5539 28.7532L29.6105 28.6965L29.6476 28.6233C29.7137 28.4911 29.7578 28.3682 29.7805 28.2327C29.801 28.1092 29.8 27.9898 29.8 27.8997V24.8997C29.7999 24.5005 29.6686 24.0612 29.3537 23.7463C29.1289 23.5216 28.7271 23.223 28.2492 23.2034L28.2502 23.2024C27.3096 23.1083 26.3592 22.8253 25.3537 22.5237C25.1937 22.4571 25.0289 22.4282 24.8996 22.4153C24.8229 22.4076 24.7474 22.4034 24.6789 22.4016L24.5002 22.3997C24.2464 22.3997 24.04 22.5223 23.9348 22.5881C23.7799 22.6849 23.7507 22.7158 23.676 22.7532L23.6037 22.7893L22.2463 24.1467C22.2283 24.1646 22.1788 24.1959 22.1115 24.2063C22.0496 24.2158 22.006 24.2026 21.9777 24.1838L21.9641 24.175L21.9494 24.1672L21.4816 23.886C19.1795 22.4532 17.2292 20.4468 15.8654 18.1038C15.8434 18.023 15.8352 17.9461 15.8439 17.8889C15.8527 17.8321 15.8692 17.821 15.8771 17.8157L15.9182 17.7883L17.3107 16.3958L17.3469 16.3235L17.3488 16.3215V16.3206L17.3498 16.3186V16.3176L17.3517 16.3157V16.3147L17.3527 16.3127V16.3118L17.3547 16.3098V16.3088L17.3557 16.3069V16.3059L17.3576 16.304V16.303L17.3586 16.301V16.3L17.3605 16.2981V16.2971L17.3615 16.2952V16.2942L17.3635 16.2922V16.2913L17.3644 16.2893V16.2883L17.3664 16.2864V16.2854L17.3674 16.2834V16.2825L17.3693 16.2805V16.2795L17.3703 16.2776V16.2766L17.3723 16.2747V16.2737L17.3732 16.2717V16.2708L17.3752 16.2688V16.2678L17.3762 16.2659V16.2649L17.3781 16.2629V16.262L17.3791 16.26V16.259L17.381 16.2571V16.2561L17.382 16.2542V16.2532L17.384 16.2512V16.2502L17.3849 16.2483V16.2473L17.3869 16.2454V16.2444L17.3879 16.2424V16.2415L17.3898 16.2395V16.2385L17.3908 16.2366V16.2356L17.3928 16.2336V16.2327L17.3937 16.2307V16.2297L17.3957 16.2278V16.2268L17.3967 16.2249V16.2239L17.3986 16.2219V16.2209L17.3996 16.219V16.218L17.4016 16.2161V16.2151L17.4025 16.2131V16.2122L17.4045 16.2102V16.2092L17.4055 16.2073V16.2063L17.4074 16.2043V16.2034L17.4084 16.2014V16.2004L17.4103 16.1985V16.1975L17.4113 16.1956V16.1946L17.4133 16.1926V16.1917L17.4142 16.1897V16.1887L17.4162 16.1868V16.1858L17.4172 16.1838V16.1829L17.4191 16.1809V16.1799L17.4201 16.178V16.177L17.4221 16.175V16.1741L17.423 16.1721V16.1711L17.425 16.1692V16.1682L17.426 16.1663V16.1653L17.4279 16.1633V16.1624L17.4289 16.1604V16.1594L17.4308 16.1575V16.1565L17.4318 16.1545V16.1536L17.4338 16.1516V16.1506L17.4348 16.1487V16.1477L17.4367 16.1458V16.1448L17.4377 16.1428V16.1418L17.4396 16.1399V16.1389L17.4406 16.137V16.136L17.4426 16.134V16.1331L17.4435 16.1311V16.1301L17.4455 16.1282V16.1272L17.4465 16.1252V16.1243L17.4484 16.1223V16.1213L17.4494 16.1194V16.1184L17.4514 16.1165V16.1155L17.4523 16.1135V16.1125L17.4543 16.1106V16.1096L17.4553 16.1077V16.1067L17.4572 16.1047V16.1038L17.4582 16.1018V16.1008L17.4601 16.0989V16.0979L17.4611 16.0959V16.095L17.4631 16.093V16.092L17.4641 16.0901V16.0891L17.466 16.0872V16.0862L17.467 16.0842V16.0833L17.4689 16.0813V16.0803L17.4699 16.0784V16.0774L17.4719 16.0754V16.0745L17.4728 16.0725V16.0715L17.4748 16.0696V16.0686L17.4758 16.0667V16.0657L17.4777 16.0637V16.0627L17.4787 16.0608V16.0598L17.4807 16.0579V16.0569L17.4816 16.0549V16.054L17.4836 16.052V16.051L17.4846 16.0491V16.0481L17.4865 16.0461V16.0452L17.4875 16.0432V16.0422L17.4894 16.0403V16.0393L17.4904 16.0374V16.0364L17.4924 16.0344V16.0334L17.4933 16.0315V16.0305L17.4953 16.0286V16.0276L17.4963 16.0256V16.0247L17.4982 16.0227V16.0217L17.4992 16.0198V16.0188L17.5012 16.0168V16.0159L17.5021 16.0139V16.0129L17.5041 16.011V16.01L17.5051 16.0081V16.0071L17.507 16.0051V16.0042L17.508 16.0022V16.0012L17.5099 15.9993V15.9983L17.5109 15.9963V15.9954L17.5129 15.9934V15.9924L17.5139 15.9905V15.9895L17.5158 15.9875V15.9866L17.5168 15.9846V15.9836L17.5187 15.9817V15.9807L17.5197 15.9788V15.9778L17.5217 15.9758V15.9749L17.5226 15.9729V15.9719L17.5246 15.97V15.969L17.5256 15.967V15.9661L17.5275 15.9641V15.9631L17.5285 15.9612V15.9602L17.5305 15.9583V15.9573L17.5314 15.9553V15.9543L17.5334 15.9524V15.9514L17.5344 15.9495V15.9485L17.5363 15.9465V15.9456L17.5373 15.9436V15.9426L17.5392 15.9407V15.9397L17.5402 15.9377V15.9368L17.5422 15.9348V15.9338L17.5432 15.9319V15.9309L17.5451 15.929V15.928L17.5461 15.926V15.925L17.548 15.9231V15.9221L17.549 15.9202V15.9192L17.551 15.9172V15.9163L17.5519 15.9143V15.9133L17.5539 15.9114V15.9104L17.5549 15.9084V15.9075L17.5568 15.9055V15.9045L17.5578 15.9026V15.9016L17.5598 15.8997V15.8987L17.5607 15.8967V15.8958L17.5627 15.8938V15.8928L17.5637 15.8909V15.8899L17.5656 15.8879V15.887L17.5666 15.885V15.884L17.5685 15.8821V15.8811L17.5695 15.8792V15.8782L17.5715 15.8762V15.8752L17.5724 15.8733V15.8723L17.5744 15.8704V15.8694L17.5754 15.8674V15.8665L17.5773 15.8645V15.8635L17.5783 15.8616V15.8606L17.5803 15.8586V15.8577L17.5812 15.8557V15.8547L17.5832 15.8528V15.8518L17.5842 15.8499V15.8489L17.5861 15.8469V15.8459L17.5871 15.844V15.843L17.5891 15.8411V15.8401L17.59 15.8381V15.8372L17.592 15.8352V15.8342L17.593 15.8323V15.8313L17.5949 15.8293V15.8284L17.5959 15.8264V15.8254L17.5978 15.8235V15.8225L17.5988 15.8206V15.8196L17.6008 15.8176V15.8167L17.6017 15.8147V15.8137L17.6037 15.8118V15.8108L17.6047 15.8088V15.8079L17.6066 15.8059V15.8049L17.6076 15.803V15.802L17.6096 15.8V15.7991L17.6105 15.7971V15.7961L17.6125 15.7942V15.7932L17.6135 15.7913V15.7903L17.6154 15.7883V15.7874L17.6164 15.7854V15.7844L17.6183 15.7825V15.7815L17.6193 15.7795V15.7786L17.6213 15.7766V15.7756L17.6223 15.7737V15.7727L17.6242 15.7708V15.7698L17.6252 15.7678V15.7668L17.6271 15.7649V15.7639L17.6281 15.762V15.761L17.6301 15.759V15.7581L17.631 15.7561V15.7551L17.633 15.7532V15.7522L17.634 15.7502V15.7493L17.6359 15.7473V15.7463L17.6369 15.7444V15.7434L17.6389 15.7415V15.7405L17.6398 15.7385V15.7375L17.6418 15.7356V15.7346L17.6428 15.7327V15.7317L17.6447 15.7297V15.7288L17.6457 15.7268V15.7258L17.6476 15.7239L17.7004 15.6184V15.5002C17.7004 15.403 17.7001 15.2533 17.6848 15.0999C17.6709 14.962 17.6394 14.7839 17.5627 14.6145H17.5646C17.1864 13.669 16.9943 12.717 16.8976 11.7502H16.8957C16.8758 11.2728 16.5783 10.8714 16.3537 10.6467L16.2697 10.5627L16.1584 10.5256L15.9289 10.4504C15.6843 10.3737 15.3966 10.3 15.0998 10.3H12.0998Z" fill="#3D3D3D" stroke="#3D3D3D"/>
</svg>
