<svg width="40" height="40" viewBox="0 0 40 40" fill="none" xmlns="http://www.w3.org/2000/svg">
<rect width="40" height="40" rx="20" fill="#3BCE57"/>
<path d="M20.1667 10.0369C22.7862 10.0379 25.2446 11.0571 27.0935 12.908C28.9421 14.7589 29.9597 17.2194 29.9587 19.8357C29.9568 25.2345 25.5632 29.6275 20.1667 29.6277H20.1619C18.5234 29.6272 16.9131 29.2164 15.4832 28.4363L15.4685 28.4275L15.4519 28.4324L10.3083 29.781L11.6853 24.7556L11.6902 24.738L11.6814 24.7234C10.8245 23.2388 10.3728 21.5539 10.3738 19.8279C10.3762 14.4289 14.7697 10.0369 20.1667 10.0369ZM20.1697 11.613C15.638 11.613 11.9529 15.2986 11.9509 19.8279C11.95 21.3799 12.3845 22.8919 13.2068 24.2L13.3914 24.4939L12.5701 27.4929L12.5515 27.5623L12.6208 27.5437L15.697 26.7361L15.9812 26.905C17.2428 27.6534 18.689 28.05 20.1628 28.0505H20.1667C24.6945 28.0503 28.3797 24.3649 28.3816 19.8347C28.3825 17.64 27.5284 15.5757 25.9773 14.0232C24.5232 12.5674 22.6199 11.7243 20.5798 11.6238L20.1697 11.613ZM16.6843 15.3289C16.8481 15.3289 17.011 15.3297 17.1531 15.3367V15.3376C17.1733 15.3387 17.1947 15.3387 17.2146 15.3386C17.235 15.3385 17.2549 15.3384 17.2751 15.3396C17.3151 15.3419 17.3555 15.3487 17.3962 15.3679C17.4772 15.4063 17.5719 15.4994 17.6697 15.7341C17.7722 15.9799 17.9462 16.4047 18.1023 16.7839C18.2576 17.1611 18.3966 17.496 18.4285 17.5603C18.4872 17.6782 18.5225 17.8068 18.449 17.9539C18.3659 18.1196 18.3276 18.2167 18.2087 18.3552C18.0831 18.5016 17.9514 18.674 17.8425 18.783C17.7823 18.8429 17.7126 18.9134 17.6794 19.0027C17.6449 19.0958 17.6518 19.2033 17.7283 19.3347C17.8723 19.582 18.368 20.3916 19.1033 21.0476C20.0474 21.8893 20.847 22.1522 21.0886 22.2732C21.214 22.336 21.3203 22.3658 21.4167 22.3542C21.515 22.3424 21.596 22.2885 21.6716 22.2019C21.8147 22.0386 22.2875 21.4829 22.4529 21.2341C22.5301 21.118 22.602 21.0766 22.6755 21.0681C22.7537 21.0592 22.8421 21.0853 22.9558 21.1267C23.0659 21.1668 23.422 21.3349 23.7839 21.5095C24.1445 21.6835 24.5078 21.863 24.6306 21.9246C24.7559 21.9873 24.8557 22.0317 24.9343 22.075C25.0124 22.118 25.0594 22.1548 25.0837 22.196L25.0847 22.197C25.0946 22.2138 25.1057 22.2554 25.1111 22.324C25.1162 22.3906 25.1159 22.4771 25.1072 22.5789C25.0896 22.7829 25.0384 23.0463 24.9373 23.3298C24.8397 23.6031 24.5534 23.8715 24.2253 24.0818C23.8983 24.2914 23.5404 24.4363 23.3123 24.4705C22.8924 24.5331 22.364 24.5592 21.7839 24.3748C21.4276 24.2618 20.9708 24.1106 20.3865 23.8582C17.9343 22.7987 16.3311 20.328 16.2058 20.1609C16.1443 20.0788 15.8953 19.7486 15.6619 19.2888C15.4278 18.8277 15.2107 18.2396 15.2107 17.6443C15.2107 16.4528 15.8351 15.8687 16.0603 15.6228C16.2763 15.3871 16.5303 15.3289 16.6843 15.3289Z" fill="white" stroke="white" stroke-width="0.0834177"/>
</svg>
